<svg version="1.2" xmlns="http://www.w3.org/2000/svg" viewBox="0 0 48 48" width="48" height="48">
	<title>github-footer-svg</title>
	<style>
		.s0 { fill: #00db5f } 
		.s1 { fill: #161514 } 
	</style>
	<path id="Layer" class="s0" d="m48 24.6c0 10.9-6.9 20.1-16.4 23.4c-1.2 0.2-1.6-0.6-1.6-1.2c0-0.8 0-3.5 0-6.8c0-2.3-0.8-3.8-1.6-4.5c5.3-0.6 10.9-2.7 10.9-12.2c0-2.7-0.9-4.9-2.5-6.6c0.3-0.6 1.1-3.1-0.2-6.5c0 0-2-0.7-6.6 2.5c-1.9-0.5-4-0.8-6-0.8c-2 0-4.1 0.3-6 0.8c-4.6-3.2-6.6-2.5-6.6-2.5c-1.3 3.4-0.5 5.9-0.2 6.5c-1.6 1.7-2.5 3.9-2.5 6.6c0 9.5 5.6 11.6 10.9 12.2c-0.7 0.6-1.3 1.7-1.5 3.3c-1.4 0.6-4.8 1.7-7-2.1c0 0-1.3-2.3-3.7-2.5c0 0-2.3 0-0.1 1.5c0 0 1.5 0.7 2.6 3.6c0 0 1.4 4.4 8.1 2.9c0 2 0.1 4 0.1 4.6c0 0.6-0.5 1.4-1.7 1.2c-9.5-3.3-16.4-12.5-16.4-23.4c0-13.6 10.7-24.6 24-24.6c13.3 0 24 11 24 24.6z" />
	<path id="Layer" class="s1" d="m9.2 35.2c-0.1 0.1-0.3 0.1-0.4 0c-0.2 0-0.3-0.2-0.3-0.3c0.1-0.2 0.3-0.2 0.4-0.1c0.2 0.1 0.3 0.2 0.3 0.4z" />
	<path id="Layer" class="s1" d="m10.1 36.3c-0.1 0.1-0.3 0-0.5-0.1c-0.1-0.2-0.1-0.4 0-0.6c0.1-0.1 0.3 0 0.5 0.2c0.1 0.1 0.2 0.4 0 0.5z" />
	<path id="Layer" class="s1" d="m11.1 37.7c-0.2 0.1-0.4 0-0.6-0.2c-0.1-0.3-0.1-0.5 0-0.6c0.2-0.1 0.4 0 0.6 0.2c0.1 0.2 0.1 0.5 0 0.6z" />
	<path id="Layer" class="s1" d="m12.4 39c-0.2 0.2-0.4 0.1-0.6-0.1c-0.3-0.2-0.3-0.4-0.2-0.6c0.2-0.1 0.4-0.1 0.6 0.1c0.2 0.2 0.3 0.5 0.2 0.6z" />
	<path id="Layer" class="s1" d="m14.2 39.8c-0.1 0.2-0.4 0.3-0.6 0.2c-0.3-0.1-0.5-0.3-0.4-0.5c0-0.2 0.3-0.3 0.6-0.2c0.2 0.1 0.4 0.3 0.4 0.5z" />
	<path id="Layer" class="s1" d="m16.1 40c0 0.2-0.2 0.3-0.5 0.3c-0.3 0-0.5-0.1-0.5-0.3c0-0.2 0.2-0.4 0.5-0.4c0.3 0 0.5 0.2 0.5 0.4z" />
	<path id="Layer" class="s1" d="m17.9 39.6c0.1 0.2-0.1 0.4-0.4 0.5c-0.3 0-0.5-0.1-0.6-0.3c0-0.2 0.2-0.4 0.5-0.4c0.3-0.1 0.5 0 0.5 0.2z" />
</svg>